<svg width="136" height="39" viewBox="0 0 136 39" fill="none" xmlns="http://www.w3.org/2000/svg">
<path d="M59.1895 7.25586C53.466 7.25586 49.1607 10.7907 49.2114 16.9127H54.5297C54.4537 14.4537 55.9985 12.0971 59.1895 12.0971C61.6207 12.0971 63.1656 13.7365 63.1656 15.8113C63.1656 17.963 61.4688 19.1413 58.759 20.4989C55.1881 22.2407 53.0608 23.0604 49.2114 24.3667V31.4109H68.6865V26.5953H56.4291C58.2778 25.8268 60.0506 24.9559 61.6714 24.1874C65.9767 22.1126 68.5092 19.7816 68.5092 15.5808C68.4839 10.4834 64.7357 7.25586 59.1895 7.25586ZM76.7399 12.4557H87.7564V7.64009H71.5989V31.3853H76.7399V12.4557ZM95.4805 7.64009H90.3395V31.3853H95.4553L105.053 16.2211V31.3853H110.195V7.64009H105.053L95.5059 22.8042L95.4805 7.64009ZM136.001 22.4712H130.683C129.872 25.1096 127.416 26.9282 124.503 26.9282C120.274 26.9282 117.513 23.2653 117.513 19.4999C117.513 15.7601 120.198 12.0715 124.63 12.0715C127.568 12.0715 129.847 13.8902 130.657 16.5285H135.976C135.216 11.2262 131.062 7.25586 124.478 7.25586C117.21 7.25586 112.347 12.4045 112.347 19.4999C112.347 26.5952 117.184 31.7439 124.478 31.7439C131.062 31.7695 135.216 27.8504 136.001 22.4712Z" fill="white"/>
<mask id="mask0_307_13471" style="mask-type:alpha" maskUnits="userSpaceOnUse" x="0" y="0" width="38" height="39">
<path d="M9.33959 0.0175519L10.9467 0.000488281L27.6712 0.00658143C27.9248 0.00962851 28.0822 0.0126765 28.2407 0.0175519C29.0698 0.0407097 29.906 0.090682 30.7257 0.241817C31.5583 0.395391 32.3322 0.645861 33.0885 1.04076C33.8308 1.42831 34.5099 1.93462 35.1007 2.54115C35.6899 3.14466 36.1832 3.84135 36.5622 4.60524C36.9479 5.38164 37.1916 6.17571 37.3408 7.02951C37.4882 7.8705 37.5375 8.72978 37.5598 9.57991C37.5698 9.96994 37.5745 10.3606 37.5768 10.7518L37.5792 11.4466V26.8545C37.5792 27.3182 37.5792 27.782 37.5768 28.2464C37.5745 28.6364 37.5698 29.027 37.5592 29.4177C37.5375 30.2678 37.4882 31.1265 37.3408 31.9669C37.1916 32.8213 36.9474 33.6159 36.5622 34.3923C36.1829 35.156 35.6896 35.8526 35.1007 36.4564C34.5097 37.0627 33.8307 37.569 33.0885 37.9568C32.3322 38.3517 31.5583 38.6028 30.7257 38.7551C29.906 38.9069 29.0698 38.9569 28.2402 38.98L25.7423 39.0001L9.90798 38.9904C9.65432 38.9879 9.49696 38.9843 9.33959 38.98C8.5105 38.9569 7.67378 38.9069 6.85409 38.7558C6.02147 38.6022 5.24758 38.3517 4.4913 37.9568C3.74895 37.5692 3.06992 37.0629 2.47905 36.4564C1.89013 35.8525 1.39671 35.1559 1.01699 34.3923C0.631799 33.6159 0.388708 32.8213 0.238392 31.9669C0.091011 31.1265 0.0428636 30.2678 0.020551 29.4177C0.0104231 29.0273 0.00455167 28.6368 0.0029365 28.2464L0.000586852 27.5504L0 12.1431C0 11.6794 3.04595e-07 11.215 0.00352335 10.7518C0.00528487 10.3606 0.0093947 9.97055 0.020551 9.57991C0.0428636 8.72917 0.091011 7.87111 0.238392 7.02951C0.388121 6.17571 0.631799 5.38164 1.01699 4.60524C1.78396 3.06657 3.00001 1.81896 4.4913 1.04076C5.24758 0.645861 6.02147 0.394781 6.85409 0.242426C7.67378 0.0906816 8.50992 0.0407097 9.33959 0.0175519Z" fill="white"/>
</mask>
<g mask="url(#mask0_307_13471)">
<path fill-rule="evenodd" clip-rule="evenodd" d="M0 0.000488281H37.5792V39.0001H0V0.000488281Z" fill="#19AA1E"/>
<path fill-rule="evenodd" clip-rule="evenodd" d="M0 0.000488281H37.5792V12.698L0 6.65159V0.000488281Z" fill="#FFB919"/>
<path fill-rule="evenodd" clip-rule="evenodd" d="M0 34.8921L37.5792 29.0234V39.0001H0V34.8921Z" fill="#82D714"/>
<path fill-rule="evenodd" clip-rule="evenodd" d="M0 6.34961L13.1175 8.43678C14.7498 7.38422 16.6928 6.80711 18.7896 6.80711C21.6937 6.80711 24.302 7.91409 26.2015 9.85892C26.4411 10.1041 26.6671 10.3607 26.8791 10.6274L37.5792 12.33V13.8431L27.9654 12.3133C28.6851 13.714 29.0624 15.2709 29.0651 16.8518C29.0651 18.9025 28.6148 20.9472 27.6841 22.9997L27.6553 23.0619L27.2602 23.9249H26.3254C24.3947 23.9249 23.1141 24.5128 22.2768 25.5551C21.6192 26.3739 21.2399 27.4767 21.1119 28.6805L21.1077 28.7182L21.089 28.9108L21.0813 28.9945L21.0661 29.1577C21.0167 29.696 20.9839 30.1511 20.9674 30.5225L37.5792 27.8791V29.3922L0 35.3726V33.8596L16.6305 31.2126L16.6229 30.8729L16.6206 30.7772L16.6194 30.7282L16.617 30.6523C16.5941 30.1246 16.5569 29.5978 16.5055 29.0722L16.4937 28.9508L16.4738 28.7409C16.3546 27.5311 15.98 26.4133 15.3241 25.5833C14.4962 24.5337 13.2273 23.9368 11.3119 23.9249H10.319L9.92325 23.0619C8.9732 20.9885 8.51344 18.9235 8.51344 16.8518C8.51344 14.2474 9.55098 11.7284 11.3771 9.85892C11.4299 9.8051 11.4828 9.75127 11.5368 9.69865L0 7.86266V6.34961Z" fill="white"/>
<path fill-rule="evenodd" clip-rule="evenodd" d="M18.7912 8.16357C24.1208 8.16357 27.7386 12.2757 27.7386 16.7118C27.7386 18.4925 27.3509 20.3462 26.4466 22.2889C21.2022 22.2889 19.9078 26.0536 19.6626 28.4227L19.6471 28.5805C19.5642 29.426 19.5159 30.1041 19.5034 30.6153L18.0825 30.8378V30.7917C18.0766 30.256 18.0265 29.5038 17.931 28.5363L17.9263 28.4938C17.6996 26.1301 16.4326 22.2889 11.1352 22.2889C10.2315 20.3456 9.84375 18.4925 9.84375 16.7118C9.84375 12.2757 13.4615 8.16357 18.7912 8.16357Z" fill="#0073FA"/>
</g>
</svg>
